<?xml version="1.0" encoding="UTF-8" standalone="no"?>
<svg
   xmlns:dc="http://purl.org/dc/elements/1.1/"
   xmlns:cc="http://creativecommons.org/ns#"
   xmlns:rdf="http://www.w3.org/1999/02/22-rdf-syntax-ns#"
   xmlns:svg="http://www.w3.org/2000/svg"
   xmlns="http://www.w3.org/2000/svg"
   xmlns:sodipodi="http://sodipodi.sourceforge.net/DTD/sodipodi-0.dtd"
   xmlns:inkscape="http://www.inkscape.org/namespaces/inkscape"
   width="398.48"
   height="414"
   viewBox="0 0 398.48 414"
   version="1.1"
   id="svg3860"
   sodipodi:docname="cell-5-logo-white.svg"
   inkscape:version="0.92.2 5c3e80d, 2017-08-06">
  <metadata
     id="metadata3864">
    <rdf:RDF>
      <cc:Work
         rdf:about="">
        <dc:format>image/svg+xml</dc:format>
        <dc:type
           rdf:resource="http://purl.org/dc/dcmitype/StillImage" />
        <dc:title>cell5</dc:title>
      </cc:Work>
    </rdf:RDF>
  </metadata>
  <sodipodi:namedview
     pagecolor="#ffffff"
     bordercolor="#666666"
     borderopacity="1"
     objecttolerance="10"
     gridtolerance="10"
     guidetolerance="10"
     inkscape:pageopacity="0"
     inkscape:pageshadow="2"
     inkscape:window-width="1680"
     inkscape:window-height="949"
     id="namedview3862"
     showgrid="false"
     inkscape:snap-bbox="true"
     inkscape:zoom="2.5141574"
     inkscape:cx="169.95882"
     inkscape:cy="261.88515"
     inkscape:window-x="28"
     inkscape:window-y="0"
     inkscape:window-maximized="0"
     inkscape:current-layer="svg3860" />
  <defs
     id="defs3854">
    <style
       id="style3852">.a{fill:#231f20;}</style>
  </defs>
  <title
     id="title3856">cell5</title>
  <path
     class="a"
     d="M 436.29,383.57 320,182.48 l 74.77,-0.05 a 2.3,2.3 0 0 0 2,-1.15 L 436.11,113 a 2.3,2.3 0 0 0 0,-2.3 L 396.69,42.56 a 2.3,2.3 0 0 0 -2,-1.15 v 0 l -236.27,0.16 a 2.3,2.3 0 0 0 -2,1.15 l -118,204.7 a 2.3,2.3 0 0 0 0,2.3 l 39.42,68.18 a 2.3,2.3 0 0 0 2,1.15 v 0 l 74.77,-0.05 -37.34,64.78 a 2.3,2.3 0 0 0 0,2.3 l 39.42,68.18 a 2.3,2.3 0 0 0 2,1.15 v 0 L 395,455.25 v 0 a 2.3,2.3 0 0 0 2,-1.15 l 39.33,-68.23 a 2.3,2.3 0 0 0 -0.04,-2.3 z M 197.85,116.66 233.28,177.93 H 162.5 l 23.15,-40.16 z M 316,177.88 v 0 l -77.43,0.05 -32.57,-56.34 -4.18,-7.23 100,-0.07 h 52.16 l 36.76,63.57 z M 394.75,175.52 358,111.95 381.75,70.76 394.7,48.32 431.46,111.9 Z m -235,-129.34 231,-0.16 -36.75,63.63 -156.18,0.11 a 2.3,2.3 0 0 0 -2,1.15 l -39.33,68.23 a 2.3,2.3 0 0 0 2,3.45 v 0 l 153.53,-0.1 -36.68,63.63 H 217.6 l -173.22,0.12 z m 113,336.35 -149.54,0.1 L 159.94,319 H 236 Z M 160,450.81 l -36.76,-63.58 153.53,-0.1 a 2.3,2.3 0 0 0 2,-3.46 l -39.42,-68.18 a 2.3,2.3 0 0 0 -2,-1.15 v 0 l -156.19,0.11 -36.75,-63.58 172,-0.12 h 59 L 391,450.65 Z M 395,448.35 312.25,305.25 279.39,248.42 316,184.79 431.64,384.72 Z"
     id="path3858"
     transform="translate(-38.12,-41.41)"
     sodipodi:insensitive="true"
     inkscape:connector-curvature="0"
     style="fill:#ffffff;fill-opacity:1" />
</svg>
