<svg id="Layer_1" data-name="Layer 1" xmlns="http://www.w3.org/2000/svg" viewBox="0 0 102 102">
  <title>design-lines</title>
  <path style="fill: #fefffe" d="M38.14,51.81,49.61,40.33l-3.28-3.28L34.86,48.53,28.3,42l8.2-8.2L33.22,30.5,25,38.69,20.1,33.77,39.77,14.1,64.25,38.58l3.28-3.28L43.05,10.82a4.64,4.64,0,0,0-6.56,0L16.82,30.5a4.64,4.64,0,0,0,0,6.56L41.3,61.53l3.28-3.28Z" transform="translate(-15 -9)"/>
  <path style="fill: #fefffe" d="M115.18,83,90.71,58.48l-3.28,3.28,24.47,24.47L92.23,105.91,87.32,101l8.2-8.2-3.28-3.28L84,97.71l-6.56-6.56L89,79.68,85.68,76.4,74.2,87.87l-6.44-6.44-3.28,3.28L89,109.18a4.64,4.64,0,0,0,6.56,0l19.67-19.67A4.64,4.64,0,0,0,115.18,83Z" transform="translate(-15 -9)"/>
  <path style="fill: #d64933" d="M111,34,116.9,12.5a2.76,2.76,0,0,0-3.4-3.4L92,15a2.76,2.76,0,0,0-1.23.72L16.62,89.86a5.52,5.52,0,0,0,0,7.81l11.71,11.71a5.52,5.52,0,0,0,7.81,0L110.32,35.2A2.76,2.76,0,0,0,111,34Zm-.72-18.29L107,27.94,98.06,19ZM92.75,21.54l3.9,3.9L36.14,86l-3.9-3.9ZM32.23,105.48,20.52,93.76,28.33,86,40,97.67ZM43.95,93.76,40,89.86l60.52-60.52,3.9,3.9Z" transform="translate(-15 -9)"/>
</svg>
