<svg xmlns="http://www.w3.org/2000/svg" viewBox="0 0 192 234.14">
  <title>pat-vector</title>
  <g id="shirt">
    <polygon points="54 173.14 80 193.14 111 193.14 141 180.14 141 233.14 49.13 233.14 54 173.14" style="fill: #fff;stroke: #000;stroke-miterlimit: 10;stroke-width: 2px"/>
    <polygon points="60 154.14 54 161.14 44.5 167.64 19.5 175.64 1 183.14 1 233.14 56 233.14 57.56 207.63 56.56 190.63 59.5 163.64 60 154.14" style="fill: #4f5156;stroke: #000;stroke-miterlimit: 10;stroke-width: 2px"/>
    <polygon points="135.88 153.64 132.96 192.49 128.5 233.14 191 233.14 191 181.14 174.27 176.14 156.55 168.64 147 163.14 135.88 153.64" style="fill: #4f5156;stroke: #000;stroke-miterlimit: 10;stroke-width: 2px"/>
    <polyline points="147 163.14 165 190.14 154 197.14 176 206.14 173 233.14" style="fill: none;stroke: #000;stroke-miterlimit: 10;stroke-width: 2px"/>
    <polyline points="44 168.14 23 193.14 37 201.14 14 206.14 17 233.14" style="fill: none;stroke: #000;stroke-miterlimit: 10;stroke-width: 2px"/>
  </g>
  <g id="face">
    <path d="M91,155l1,26-1,21c5.67,8.8,10.43,13.58,16,16,5.85,2.65,12.68,3.72,20,4,6.17,1,12.52-.09,19-3,6.52-.94,13.22-4.93,20-10,0,.94-.21-8,2-26l1-28Z" transform="translate(-33 -15.86)" style="fill: #c5a18a;stroke: #000;stroke-miterlimit: 10;stroke-width: 2px"/>
    <path d="M82,105c.89-.87-3.92-3.21-6-2a22.85,22.85,0,0,0-3,3c-1.86,2,.31,15.13,1,19,1.8,7.64,2,6.76,3,11,.42,4.92,3.59,7.09,8,8h7Z" transform="translate(-33 -15.86)" style="fill: #c5a18a;stroke: #000;stroke-miterlimit: 10;stroke-width: 2px"/>
    <path d="M174.5,103.5c3.81-2.75,7.73-5.66,9.5-5.5l2,1a13.38,13.38,0,0,1,3,7c.91,4.74-3,19-3,19l-1,6c0,5.45-4.47,9.29-10,10Z" transform="translate(-33 -15.86)" style="fill: #c5a18a;stroke: #000;stroke-miterlimit: 10;stroke-width: 2px"/>
    <path d="M106,45c17.56-6,31.57-4.3,40-2a43.89,43.89,0,0,1,16,7c7.54,9.59,12.78,21.16,14,30,2.36,12.42,2.17,24,2,35-.67,18.34-2.39,24.52-4,32-2.36,7.64-5.28,13.6-8,17-5.3,7-12.73,13-23,18,.1,1.93-19.9,2.93-20,1-10.18-4.12-17.48-8.48-23-13-3.73-2.88-6.41-7.37-9-12-2.74-3.45-4.59-9.16-6-16a194.37,194.37,0,0,1-4-32V89c0-7.93,3.65-21.11,6-28C93.11,52.48,96.85,48.92,106,45Z" transform="translate(-33 -15.86)" style="fill: #c5a18a;stroke: #000;stroke-miterlimit: 10;stroke-width: 2px"/>
  </g>
  <g id="hair">
    <path d="M85,73c4.67-10.75,11.11-20.06,20-25,12.79-4.95,45.15-3.13,46-2,6.29,2,13.67,8.42,17,14l3,7,4,17,1,3,2,17-1,23,1,1,3-25,1-5c.3-9.66.37-18.85-1-25-3-8.24-6.29-16.27-10-20-1-8.86-3-15.73-6-20-6.37-7.82-9.93-11.29-13-11a21.47,21.47,0,0,0-11,1c-2-2.87-5.58-4.73-10-6a39.85,39.85,0,0,0-13-1c-3.34.86-5.13,2.27-6,4a41.56,41.56,0,0,0-16,1,11.52,11.52,0,0,0-7,5c-3.19,4.81-5.37,9.21-6,13a30.32,30.32,0,0,0-9,12l-2,7L68,70a38.75,38.75,0,0,0,0,16l4,9L70.5,87.5c-2.21-6.36-1.2-14.95,1-21,.25,11.5,1.09,21.67,4,30l1,10,3,9,3,16,1.21.6L82,108l.5-19.5A57.36,57.36,0,0,1,85,73Z" transform="translate(-33 -15.86)"/>
  </g>
  <g id="features">
    <path d="M89,92s14.24-4.57,34,3l-1-2-5.24-3.43C114,87,101.75,83.09,98,83A19.52,19.52,0,0,0,89,92Z" transform="translate(-33 -15.86)"/>
    <path d="M169.17,88.82s-14.52-3.57-33.71,5.35l.86-2.06,5-3.78c2.58-2.75,14.53-7.5,18.26-7.85A19.52,19.52,0,0,1,169.17,88.82Z" transform="translate(-33 -15.86)"/>
    <circle cx="76.5" cy="84.64" r="3.5"/>
    <circle cx="117.5" cy="83.64" r="3.5"/>
    <path d="M134,128a18,18,0,0,1,4-2,1.24,1.24,0,0,1,1,0,5,5,0,0,1-1,2A16,16,0,0,1,134,128Z" transform="translate(-33 -15.86)"/>
    <path d="M126,128a18,18,0,0,0-4-2,1.24,1.24,0,0,0-1,0,5,5,0,0,0,1,2A16,16,0,0,0,126,128Z" transform="translate(-33 -15.86)"/>
    <path d="M151.5,142.5c-.87.91-5,2-5,2s-6.75-.92-10,0l-6,2-6-2a20.49,20.49,0,0,0-9,0,7.1,7.1,0,0,1-5-1" transform="translate(-33 -15.86)" style="fill: none;stroke: #000;stroke-linecap: round;stroke-miterlimit: 10;stroke-width: 2px"/>
    <path d="M117,148c.92.44,9.17,10,27,0" transform="translate(-33 -15.86)" style="fill: none;stroke: #000;stroke-linecap: round;stroke-miterlimit: 10;stroke-width: 2px"/>
    <circle cx="78.25" cy="83.39" r="0.75" style="fill: #fff"/>
    <circle cx="119.25" cy="82.39" r="0.75" style="fill: #fff"/>
    <line x1="96" y1="154.14" x2="96" y2="167.14" style="fill: none;stroke: #000;stroke-linecap: round;stroke-miterlimit: 10;stroke-width: 2px"/>
    <line x1="93" y1="153.14" x2="93" y2="167.14" style="fill: none;stroke: #000;stroke-linecap: round;stroke-miterlimit: 10;stroke-width: 2px"/>
    <line x1="90" y1="157.14" x2="90" y2="167.14" style="fill: none;stroke: #000;stroke-linecap: round;stroke-miterlimit: 10;stroke-width: 2px"/>
    <line x1="99" y1="151.14" x2="99" y2="167.14" style="fill: none;stroke: #000;stroke-linecap: round;stroke-miterlimit: 10;stroke-width: 2px"/>
    <line x1="102" y1="154.14" x2="102" y2="167.14" style="fill: none;stroke: #000;stroke-linecap: round;stroke-miterlimit: 10;stroke-width: 2px"/>
    <line x1="105" y1="152.14" x2="105" y2="167.14" style="fill: none;stroke: #000;stroke-linecap: round;stroke-miterlimit: 10;stroke-width: 2px"/>
    <line x1="108" y1="157.14" x2="108" y2="167.14" style="fill: none;stroke: #000;stroke-linecap: round;stroke-miterlimit: 10;stroke-width: 2px"/>
    <path d="M133,194" transform="translate(-33 -15.86)" style="fill: none;stroke: #000;stroke-linecap: round;stroke-miterlimit: 10;stroke-width: 2px"/>
    <circle cx="131" cy="101.14" r="1" style="fill: #020202"/>
  </g>
  <g id="shadow">
    <path d="M168,181a97,97,0,0,1-12,35c3-1.68,5.84-2.75,8-6,.47-1,1.62-1.79,2-3C168,200.61,168.12,190.32,168,181Z" transform="translate(-33 -15.86)" style="fill: #020202"/>
    <path d="M92,177c0,11.5,3.52,25,6,34-2-1.15-6-6.44-8-10C91.34,193.49,91.46,185.54,92,177Z" transform="translate(-33 -15.86)" style="fill: #020202"/>
  </g>
</svg>
