<svg id="Layer_1" data-name="Layer 1" xmlns="http://www.w3.org/2000/svg" viewBox="0 0 92.18 96.65">
  <title>seo</title>
  <path style="fill: #d64933" d="M53.33,36.13A15.76,15.76,0,1,0,69.09,51.89,15.76,15.76,0,0,0,53.33,36.13Zm1.31,21.09v-4h3.93a24.33,24.33,0,0,1-.6,4.31A31.86,31.86,0,0,0,54.64,57.22Zm2.57,2.84a15.68,15.68,0,0,1-2.57,4.54V59.85C55.52,59.88,56.38,60,57.21,60.06Zm-2.57-9.48v-4A31.76,31.76,0,0,0,58,46.33a24.28,24.28,0,0,1,.59,4.25Zm0-6.59V39.19a15.71,15.71,0,0,1,2.59,4.59C56.39,43.89,55.52,44,54.64,44Zm3.55-4.29a13.17,13.17,0,0,1,4.32,2.82,22.89,22.89,0,0,1-2.65.8A20.13,20.13,0,0,0,58.19,39.7ZM48.68,57.51a24.21,24.21,0,0,1-.6-4.31H52v4A31.86,31.86,0,0,0,48.68,57.51ZM52,59.85V64.6a15.68,15.68,0,0,1-2.57-4.54C50.28,60,51.14,59.88,52,59.85Zm-3.93-9.27a24.16,24.16,0,0,1,.59-4.25,31.76,31.76,0,0,0,3.35.29v4Zm1.35-6.8A15.73,15.73,0,0,1,52,39.19V44C51.13,44,50.27,43.89,49.43,43.78Zm-2.63-.46a22.79,22.79,0,0,1-2.65-.8,13.19,13.19,0,0,1,4.32-2.82A20.31,20.31,0,0,0,46.79,43.32Zm-.72,2.52a26.77,26.77,0,0,0-.65,4.74H40.26a13,13,0,0,1,2.12-5.93A25,25,0,0,0,46.07,45.84Zm0,12.17a25.21,25.21,0,0,0-3.67,1.18,13,13,0,0,1-2.15-6h5.17A26.73,26.73,0,0,0,46.08,58Zm.73,2.52a20.17,20.17,0,0,0,1.65,3.56,13.15,13.15,0,0,1-4.28-2.78A23.11,23.11,0,0,1,46.81,60.52Zm13,0a23.19,23.19,0,0,1,2.63.78,13.21,13.21,0,0,1-4.28,2.78A20.33,20.33,0,0,0,59.85,60.52ZM60.57,58a26.72,26.72,0,0,0,.66-4.8H66.4a13,13,0,0,1-2.15,6A25.26,25.26,0,0,0,60.57,58Zm.66-7.42a26.89,26.89,0,0,0-.65-4.74,25.06,25.06,0,0,0,3.69-1.19,13.05,13.05,0,0,1,2.12,5.93Z" transform="translate(-18 -12.95)"/>
  <path style="fill: #2c302e" d="M78.87,56.55V47.24c-4.57-1.63-5.8-1.71-6.44-3.25s.18-2.49,2.25-6.86L68.1,30.54c-4.31,2-5.3,2.9-6.86,2.25S59.6,30.9,58,26.35H48.67c-1.63,4.56-1.7,5.8-3.25,6.44s-2.56-.21-6.86-2.25L32,37.12c2.08,4.37,2.9,5.31,2.25,6.86s-1.88,1.63-6.44,3.25v9.31c4.55,1.62,5.8,1.7,6.44,3.25s-.17,2.48-2.25,6.86l6.58,6.58c4.26-2,5.26-2.92,6.86-2.25s1.63,1.87,3.25,6.44H58c1.61-4.54,1.7-5.8,3.27-6.45s2.52.21,6.84,2.26l6.58-6.58c-2.08-4.36-2.9-5.3-2.25-6.86S74.3,58.18,78.87,56.55ZM68.5,58.18c-1.23,3-.14,5.23,1,7.62L67.23,68.1c-2.33-1.16-4.6-2.29-7.61-1s-3.81,3.6-4.66,6.12H51.7c-.85-2.52-1.68-4.89-4.65-6.12s-5.34-.1-7.62,1l-2.31-2.31c1.19-2.38,2.27-4.64,1-7.62s-3.6-3.8-6.12-4.65V50.26c2.52-.85,4.89-1.68,6.12-4.65s.14-5.23-1-7.62l2.31-2.31c2.3,1.15,4.6,2.29,7.62,1s3.8-3.6,4.65-6.12H55c.85,2.52,1.69,4.89,4.65,6.12s5.33.1,7.62-1L69.54,38c-1.18,2.39-2.27,4.66-1,7.62s3.6,3.8,6.12,4.65v3.27C72.09,54.38,69.72,55.21,68.5,58.18Z" transform="translate(-18 -12.95)"/>
  <path style="fill: #2c302e" d="M62.22,18.75a.38.38,0,0,1,0,.64L54,25.09a.42.42,0,0,1-.64-.32v-3A30,30,0,0,0,35.74,76.05l-3.13,4.25A35.29,35.29,0,0,1,53.31,16.42v-3c0-.32.4-.56.64-.32ZM74,23.16l-3,4.25A30,30,0,0,1,53.39,81.75h0v-3c0-.32-.4-.56-.64-.32l-8.27,5.7a.38.38,0,0,0,0,.64l8.27,5.7a.42.42,0,0,0,.64-.32V87h0A35.25,35.25,0,0,0,74,23.16Z" transform="translate(-18 -12.95)"/>
  <rect style="fill: #2c302e" x="70.75" y="82.03" width="31.52" height="7.61" transform="translate(68.03 -48.98) rotate(45)"/>
  <rect style="fill: #2c302e" x="79.26" y="89.55" width="33.7" height="11.97" rx="5" ry="5" transform="translate(77.7 -52.93) rotate(45)"/>
</svg>
