<svg id="Layer_1" data-name="Layer 1" xmlns="http://www.w3.org/2000/svg" viewBox="0 0 106 92.17">
  <title>web</title>
  <path style="fill: #d64933" d="M64.86,30.55A16.27,16.27,0,1,0,81.13,46.82,16.27,16.27,0,0,0,64.86,30.55Zm1.36,21.77V48.18h4.06a25.11,25.11,0,0,1-.62,4.44A32.88,32.88,0,0,0,66.22,52.32Zm2.65,2.93a16.18,16.18,0,0,1-2.65,4.68V55C67.12,55.07,68,55.14,68.87,55.25Zm-2.65-9.79V41.38a32.77,32.77,0,0,0,3.45-.3,25.06,25.06,0,0,1,.6,4.39Zm0-6.8v-5a16.21,16.21,0,0,1,2.67,4.74C68,38.56,67.13,38.63,66.22,38.67Zm3.66-4.43a13.59,13.59,0,0,1,4.46,2.91,23.62,23.62,0,0,1-2.74.82A20.77,20.77,0,0,0,69.88,34.24ZM60.07,52.62a25,25,0,0,1-.62-4.44h4.06v4.14A32.88,32.88,0,0,0,60.07,52.62ZM63.51,55v4.91a16.18,16.18,0,0,1-2.65-4.68C61.72,55.14,62.61,55.07,63.51,55Zm-4.06-9.56a24.93,24.93,0,0,1,.6-4.39,32.77,32.77,0,0,0,3.45.3v4.09Zm1.39-7a16.24,16.24,0,0,1,2.67-4.74v5C62.6,38.63,61.71,38.56,60.84,38.45ZM58.12,38a23.52,23.52,0,0,1-2.74-.82,13.61,13.61,0,0,1,4.46-2.91A21,21,0,0,0,58.12,38Zm-.74,2.6a27.63,27.63,0,0,0-.67,4.89H51.38a13.45,13.45,0,0,1,2.19-6.12A25.84,25.84,0,0,0,57.38,40.57Zm0,12.55a26,26,0,0,0-3.79,1.22,13.45,13.45,0,0,1-2.22-6.17h5.33A27.58,27.58,0,0,0,57.39,53.13Zm.75,2.6a20.82,20.82,0,0,0,1.7,3.68,13.57,13.57,0,0,1-4.41-2.87A23.85,23.85,0,0,1,58.14,55.72Zm13.45,0a23.93,23.93,0,0,1,2.71.81,13.64,13.64,0,0,1-4.41,2.87A21,21,0,0,0,71.59,55.72Zm.75-2.6A27.58,27.58,0,0,0,73,48.18h5.33a13.47,13.47,0,0,1-2.22,6.17A26.07,26.07,0,0,0,72.34,53.13ZM73,45.47a27.75,27.75,0,0,0-.67-4.89,25.86,25.86,0,0,0,3.81-1.23,13.47,13.47,0,0,1,2.19,6.12Z" transform="translate(-12 -18)"/>
  <path style="fill: #2c302e" d="M108.78,89.43H77a26.44,26.44,0,0,0,10.14,16.13h5.54a2.3,2.3,0,1,1,0,4.61H37.35a2.3,2.3,0,1,1,0-4.61h5.54A26.44,26.44,0,0,0,53,89.43H21.22A9.22,9.22,0,0,1,12,80.22v-53A9.22,9.22,0,0,1,21.22,18h87.57A9.22,9.22,0,0,1,118,27.22v53A9.22,9.22,0,0,1,108.78,89.43Zm-59,16.13H80.21a29.37,29.37,0,0,1-8-16.13H57.76A29.37,29.37,0,0,1,49.78,105.57Zm63.61-78.35a4.61,4.61,0,0,0-4.61-4.61H21.22a4.61,4.61,0,0,0-4.61,4.61V71h96.78Zm0,48.39H16.61v4.61a4.61,4.61,0,0,0,4.61,4.61h87.57a4.61,4.61,0,0,0,4.61-4.61ZM65,82.52a2.3,2.3,0,1,1,2.3-2.3A2.3,2.3,0,0,1,65,82.52Z" transform="translate(-12 -18)"/>
</svg>
