<?xml version="1.0" encoding="utf-8"?>
<!-- Generator: Adobe Illustrator 22.0.0, SVG Export Plug-In . SVG Version: 6.00 Build 0)  -->
<svg version="1.1" id="Layer_1" xmlns="http://www.w3.org/2000/svg" xmlns:xlink="http://www.w3.org/1999/xlink" x="0px" y="0px"
	 viewBox="0 0 106 92.2" style="enable-background:new 0 0 106 92.2;" xml:space="preserve">
<style type="text/css">
	.st0{fill:url(#SVGID_1_);}
	.st1{fill:#FFFFFF;}
</style>
<title>web</title>
<linearGradient id="SVGID_1_" gradientUnits="userSpaceOnUse" x1="36.6" y1="65.2" x2="69.14" y2="65.2" gradientTransform="matrix(1 0 0 -1 0 94)">
	<stop  offset="0" style="stop-color:#009FFF"/>
	<stop  offset="1" style="stop-color:#EC2F4B"/>
</linearGradient>
<path class="st0" d="M52.9,12.5c-9,0-16.3,7.3-16.3,16.3s7.3,16.3,16.3,16.3s16.3-7.3,16.3-16.3l0,0C69.1,19.8,61.8,12.6,52.9,12.5z
	 M54.2,34.3v-4.1h4.1c-0.1,1.5-0.3,3-0.6,4.4C56.5,34.5,55.4,34.4,54.2,34.3z M56.9,37.3c-0.6,1.7-1.5,3.3-2.7,4.7v-5
	C55.1,37.1,56,37.1,56.9,37.3z M54.2,27.5v-4.1c1.2,0,2.3-0.1,3.4-0.3c0.3,1.4,0.5,2.9,0.6,4.4H54.2z M54.2,20.7v-5
	c1.2,1.4,2.1,3,2.7,4.7C56,20.6,55.1,20.6,54.2,20.7L54.2,20.7z M57.9,16.2c1.7,0.7,3.2,1.7,4.5,2.9c-0.9,0.3-1.8,0.6-2.7,0.8
	C59.2,18.7,58.6,17.4,57.9,16.2L57.9,16.2z M48.1,34.6c-0.3-1.5-0.5-2.9-0.6-4.4h4.1v4.1C50.4,34.4,49.2,34.5,48.1,34.6z M51.5,37
	v4.9c-1.1-1.4-2-3-2.7-4.7C49.7,37.1,50.6,37.1,51.5,37z M47.4,27.4c0.1-1.5,0.3-2.9,0.6-4.4c1.1,0.2,2.3,0.3,3.5,0.3v4.1H47.4z
	 M48.8,20.4c0.6-1.7,1.5-3.3,2.7-4.7v5C50.6,20.6,49.7,20.6,48.8,20.4L48.8,20.4z M46.1,20c-0.9-0.2-1.8-0.5-2.7-0.8
	c1.3-1.3,2.8-2.2,4.5-2.9C47.1,17.5,46.6,18.7,46.1,20z M45.4,22.6c-0.4,1.6-0.6,3.2-0.7,4.9h-5.3c0.2-2.2,1-4.3,2.2-6.1
	C42.8,21.9,44.1,22.3,45.4,22.6L45.4,22.6z M45.4,35.1c-1.3,0.3-2.6,0.7-3.8,1.2c-1.2-1.8-2-4-2.2-6.2h5.3
	C44.8,31.9,45,33.5,45.4,35.1L45.4,35.1z M46.1,37.7c0.4,1.3,1,2.5,1.7,3.7c-1.6-0.7-3.1-1.6-4.4-2.9C44.3,38.2,45.2,37.9,46.1,37.7
	L46.1,37.7z M59.6,37.7c0.9,0.2,1.8,0.5,2.7,0.8c-1.3,1.2-2.8,2.2-4.4,2.9C58.6,40.3,59.1,39,59.6,37.7L59.6,37.7z M60.3,35.1
	c0.4-1.6,0.6-3.3,0.7-5h5.3c-0.2,2.2-1,4.3-2.2,6.2C62.9,35.8,61.6,35.4,60.3,35.1L60.3,35.1z M61,27.5c-0.1-1.6-0.3-3.3-0.7-4.9
	c1.3-0.3,2.6-0.7,3.8-1.2c1.2,1.8,2,3.9,2.2,6.1H61z"/>
<path class="st1" d="M96.8,71.4H65c1.3,6.4,4.9,12.2,10.1,16.1h5.5c1.3,0,2.3,1,2.3,2.3s-1,2.3-2.3,2.3H25.3c-1.3,0-2.3-1-2.3-2.3
	s1-2.3,2.3-2.3h5.5c5.3-3.9,8.9-9.7,10.1-16.1H9.2c-5.1,0-9.2-4.1-9.2-9.2v-53C0,4.1,4.1,0,9.2,0h87.6c5.1,0,9.2,4.1,9.2,9.2v53
	C106,67.3,101.9,71.4,96.8,71.4z M37.8,87.6h30.4c-4.3-4.4-7.1-10-8-16.1H45.8C44.9,77.5,42.1,83.2,37.8,87.6L37.8,87.6z M101.4,9.2
	c0-2.5-2.1-4.6-4.6-4.6l0,0H9.2c-2.5,0-4.6,2.1-4.6,4.6l0,0V53h96.8V9.2z M101.4,57.6H4.6v4.6c0,2.5,2.1,4.6,4.6,4.6l0,0h87.6
	c2.5,0,4.6-2.1,4.6-4.6l0,0L101.4,57.6z M53,64.5c-1.3,0-2.3-1-2.3-2.3s1-2.3,2.3-2.3s2.3,1,2.3,2.3S54.3,64.5,53,64.5L53,64.5z"/>
</svg>
