<svg xmlns="http://www.w3.org/2000/svg" width="398.48" height="414" viewBox="0 0 398.48 414"><defs><style>.a{fill:#231f20;}</style></defs><title>cell5</title><path class="a" d="M436.29,383.57L320,182.48l74.77-.05a2.3,2.3,0,0,0,2-1.15L436.11,113a2.3,2.3,0,0,0,0-2.3L396.69,42.56a2.3,2.3,0,0,0-2-1.15h0l-236.27.16a2.3,2.3,0,0,0-2,1.15l-118,204.7a2.3,2.3,0,0,0,0,2.3l39.42,68.18a2.3,2.3,0,0,0,2,1.15h0l74.77-.05-37.34,64.78a2.3,2.3,0,0,0,0,2.3l39.42,68.18a2.3,2.3,0,0,0,2,1.15h0L395,455.25h0a2.3,2.3,0,0,0,2-1.15l39.33-68.23A2.3,2.3,0,0,0,436.29,383.57ZM197.85,116.66l35.43,61.27-70.78,0,23.15-40.16ZM316,177.88h0l-77.43.05L206,121.59l-4.18-7.23,100-.07,52.16,0,36.76,63.57Zm78.75-2.36L358,111.95l23.75-41.19L394.7,48.32l36.76,63.58Zm-235-129.34,231-.16L354,109.65l-156.18.11a2.3,2.3,0,0,0-2,1.15l-39.33,68.23a2.3,2.3,0,0,0,2,3.45h0l153.53-.1-36.68,63.63-57.74,0-173.22.12Zm113,336.35-149.54.1L159.94,319,236,319ZM160,450.81l-36.76-63.58,153.53-.1a2.3,2.3,0,0,0,2-3.46l-39.42-68.18a2.3,2.3,0,0,0-2-1.15h0l-156.19.11L44.41,250.87l172-.12,59,0L391,450.65ZM395,448.35l-82.75-143.1-32.86-56.83L316,184.79,431.64,384.72Z" transform="translate(-38.12 -41.41)"/></svg>