<?xml version="1.0" encoding="utf-8"?>
<!-- Generator: Adobe Illustrator 22.0.0, SVG Export Plug-In . SVG Version: 6.00 Build 0)  -->
<svg version="1.1" id="Layer_1" xmlns="http://www.w3.org/2000/svg" xmlns:xlink="http://www.w3.org/1999/xlink" x="0px" y="0px"
	 viewBox="0 0 100.1 78" style="enable-background:new 0 0 100.1 78;" xml:space="preserve">
<style type="text/css">
	.st0{fill:#2C302E;}
	.st1{fill:url(#SVGID_1_);}
</style>
<title>cloud</title>
<path class="st0" d="M86.3,25.7c-3.8-10-14.6-15.4-24.8-12.4C53.3,0.1,36-4,22.7,4.2C14.6,9.2,9.6,18,9.4,27.5
	c-9,5.2-12,16.7-6.8,25.7c3.4,5.7,9.5,9.3,16.1,9.3h0.1v-6.2h-0.1c-6.9,0-12.5-5.6-12.5-12.5c0-5.8,4-10.9,9.7-12.2
	C14,19.7,22.1,8.4,34.1,6.5c10.8-1.7,21.3,4.8,24.4,15.3c6.1-4.8,14.9-3.8,19.8,2.3c1.6,2.1,2.7,4.6,3,7.2h0.1
	c6.9,0.4,12.2,6.3,11.8,13.2c-0.4,6.4-5.4,11.4-11.8,11.8h-3.5v6.3h3.5c10.4,0,18.8-8.4,18.8-18.8C100.2,35.3,94.5,27.9,86.3,25.7
	L86.3,25.7z"/>
<linearGradient id="SVGID_1_" gradientUnits="userSpaceOnUse" x1="23.14" y1="38.345" x2="73.14" y2="38.345">
	<stop  offset="0" style="stop-color:#009FFF"/>
	<stop  offset="0.6249" style="stop-color:#96588C"/>
	<stop  offset="1" style="stop-color:#EC2F4B"/>
</linearGradient>
<path class="st1" d="M23.1,45.7h50V31h-50V45.7z M60.6,33.9H70v5.9h-9.4V33.9z M38.8,33.9H45v2.9h-6.2L38.8,33.9z M38.8,39.8H45v2.9
	h-6.2L38.8,39.8z M29.4,34h6.2v2.9h-6.3L29.4,34z M29.4,39.8h6.2v2.9h-6.3L29.4,39.8z"/>
<path class="st0" d="M23.1,63.3H45v8.8H23.1V78h50v-5.9H51.3v-8.8h21.9V48.6h-50V63.3z M60.6,51.6H70v5.9h-9.4V51.6z M38.8,51.6H45
	v2.9h-6.2L38.8,51.6z M38.8,57.4H45v2.9h-6.2L38.8,57.4z M29.4,51.6h6.2v2.9h-6.3L29.4,51.6z M29.4,57.4h6.2v2.9h-6.3L29.4,57.4z"/>
</svg>
