<svg xmlns="http://www.w3.org/2000/svg" viewBox="0 0 57.65 102">
  <title>mobile-light</title>
  <g id="Layer_1" data-name="Layer 1">
    <g id="Layer_2" data-name="Layer 2">
      <circle cx="28.83" cy="90.92" r="4.43" style="fill: #fefffe"/>
      <path d="M48.78,0H8.87A8.87,8.87,0,0,0,0,8.87V93.13A8.87,8.87,0,0,0,8.87,102H48.78a8.87,8.87,0,0,0,8.87-8.87V8.87A8.87,8.87,0,0,0,48.78,0Zm4.43,93.13a4.44,4.44,0,0,1-4.43,4.43H8.86a4.44,4.44,0,0,1-4.43-4.43V84.26H53.21ZM4.43,79.83V22.17H53.21V79.83Zm0-62.09V8.87A4.44,4.44,0,0,1,8.87,4.44H48.78a4.44,4.44,0,0,1,4.43,4.43v8.87Z" style="fill: #fefffe"/>
      <path d="M35.47,8.87H22.17a2.22,2.22,0,0,0,0,4.43h13.3a2.22,2.22,0,0,0,0-4.43Z" style="fill: #fefffe"/>
    </g>
  </g>
  <g id="Layer_2-2" data-name="Layer 2">
    <path d="M13.3,28.83h4.43A2.22,2.22,0,0,1,20,31h0v4.43a2.22,2.22,0,0,1-2.22,2.22H13.3a2.22,2.22,0,0,1-2.22-2.22h0V31A2.22,2.22,0,0,1,13.3,28.83Z" style="fill: #d64933"/>
    <path d="M26.59,28.83H31A2.22,2.22,0,0,1,33.28,31h0v4.43a2.22,2.22,0,0,1-2.22,2.22H26.59a2.22,2.22,0,0,1-2.22-2.22h0V31A2.22,2.22,0,0,1,26.59,28.83Z" style="fill: #d64933"/>
    <path d="M39.8,28.83h4.43A2.22,2.22,0,0,1,46.5,31h0v4.43a2.22,2.22,0,0,1-2.22,2.22H39.8a2.22,2.22,0,0,1-2.22-2.22h0V31A2.22,2.22,0,0,1,39.8,28.83Z" style="fill: #d64933"/>
    <path d="M13.3,44.37h4.43A2.22,2.22,0,0,1,20,46.54h0V51a2.22,2.22,0,0,1-2.22,2.22H13.3A2.22,2.22,0,0,1,11.08,51h0V46.54A2.22,2.22,0,0,1,13.3,44.37Z" style="fill: #d64933"/>
    <path d="M26.55,44.37H31a2.22,2.22,0,0,1,2.27,2.17h0V51A2.22,2.22,0,0,1,31,53.19H26.55A2.22,2.22,0,0,1,24.33,51h0V46.54A2.22,2.22,0,0,1,26.55,44.37Z" style="fill: #d64933"/>
    <path d="M39.8,44.37h4.43a2.22,2.22,0,0,1,2.27,2.17h0V51a2.22,2.22,0,0,1-2.22,2.22H39.8A2.22,2.22,0,0,1,37.58,51h0V46.54A2.22,2.22,0,0,1,39.8,44.37Z" style="fill: #d64933"/>
    <path d="M26.55,59.91H31a2.22,2.22,0,0,1,2.27,2.17h0v4.43A2.22,2.22,0,0,1,31,68.73H26.55a2.22,2.22,0,0,1-2.22-2.22h0V62.08A2.22,2.22,0,0,1,26.55,59.91Z" style="fill: #d64933"/>
    <path d="M13.3,59.91h4.43A2.22,2.22,0,0,1,20,62.08h0v4.43a2.22,2.22,0,0,1-2.22,2.22H13.3a2.22,2.22,0,0,1-2.22-2.22h0V62.08A2.22,2.22,0,0,1,13.3,59.91Z" style="fill: #d64933"/>
  </g>
</svg>
