<?xml version="1.0" encoding="utf-8"?>
<!-- Generator: Adobe Illustrator 22.0.0, SVG Export Plug-In . SVG Version: 6.00 Build 0)  -->
<svg version="1.1" id="Layer_1" xmlns="http://www.w3.org/2000/svg" xmlns:xlink="http://www.w3.org/1999/xlink" x="0px" y="0px"
	 viewBox="0 0 57.7 102" style="enable-background:new 0 0 57.7 102;" xml:space="preserve">
<style type="text/css">
	.st0{fill:#2C302E;}
	.st1{fill:url(#SVGID_1_);}
	.st2{fill:url(#SVGID_2_);}
	.st3{fill:url(#SVGID_3_);}
	.st4{fill:url(#SVGID_4_);}
	.st5{fill:url(#SVGID_5_);}
	.st6{fill:url(#SVGID_6_);}
	.st7{fill:url(#SVGID_7_);}
	.st8{fill:url(#SVGID_8_);}
</style>
<title>mobile-dark</title>
<g id="Layer_1_1_">
	<g id="Layer_2_1_">
		<circle class="st0" cx="28.8" cy="90.9" r="4.4"/>
		<path class="st0" d="M48.8,0H8.9C4,0,0,4,0,8.9c0,0,0,0,0,0v84.3C0,98,4,102,8.9,102c0,0,0,0,0,0h39.9c4.9,0,8.9-4,8.9-8.9l0,0
			V8.9C57.6,4,53.7,0,48.8,0z M53.2,93.1c0,2.4-2,4.4-4.4,4.4H8.9c-2.4,0-4.4-2-4.4-4.4v-8.9h48.8V93.1z M4.4,79.8V22.2h48.8v57.7
			H4.4z M4.4,17.7V8.9c0-2.4,2-4.4,4.4-4.4h39.9c2.4,0,4.4,2,4.4,4.4v8.9L4.4,17.7z"/>
		<path class="st0" d="M35.5,8.9H22.2C20.9,9,20,10,20.1,11.2c0.1,1.1,1,2,2.1,2.1h13.3c1.2-0.1,2.1-1.1,2.1-2.4
			C37.5,9.8,36.6,8.9,35.5,8.9z"/>
	</g>
</g>
<g id="Layer_2-2">
	<linearGradient id="SVGID_1_" gradientUnits="userSpaceOnUse" x1="10.9886" y1="30.6118" x2="20.0914" y2="35.8673">
		<stop  offset="0" style="stop-color:#009FFF"/>
		<stop  offset="0.3076" style="stop-color:#5178C1"/>
		<stop  offset="0.6445" style="stop-color:#A45182"/>
		<stop  offset="0.8835" style="stop-color:#D8395A"/>
		<stop  offset="1" style="stop-color:#EC2F4B"/>
	</linearGradient>
	<path class="st1" d="M13.3,28.8h4.4c1.2,0,2.2,0.9,2.3,2.2c0,0,0,0,0,0l0,0v4.4c0,1.2-1,2.2-2.2,2.2l0,0h-4.5c-1.2,0-2.2-1-2.2-2.2
		l0,0l0,0V31C11.1,29.8,12.1,28.8,13.3,28.8z"/>
	<linearGradient id="SVGID_2_" gradientUnits="userSpaceOnUse" x1="24.2774" y1="30.6139" x2="33.3727" y2="35.8651">
		<stop  offset="0" style="stop-color:#009FFF"/>
		<stop  offset="0.3076" style="stop-color:#5178C1"/>
		<stop  offset="0.6445" style="stop-color:#A45182"/>
		<stop  offset="0.8835" style="stop-color:#D8395A"/>
		<stop  offset="1" style="stop-color:#EC2F4B"/>
	</linearGradient>
	<path class="st2" d="M26.6,28.8H31c1.2,0,2.2,0.9,2.3,2.2c0,0,0,0,0,0l0,0v4.4c0,1.2-1,2.2-2.2,2.2l0,0h-4.5c-1.2,0-2.2-1-2.2-2.2
		l0,0l0,0V31C24.4,29.8,25.4,28.8,26.6,28.8z"/>
	<linearGradient id="SVGID_3_" gradientUnits="userSpaceOnUse" x1="37.4886" y1="30.6118" x2="46.5914" y2="35.8673">
		<stop  offset="0" style="stop-color:#009FFF"/>
		<stop  offset="0.3076" style="stop-color:#5178C1"/>
		<stop  offset="0.6445" style="stop-color:#A45182"/>
		<stop  offset="0.8835" style="stop-color:#D8395A"/>
		<stop  offset="1" style="stop-color:#EC2F4B"/>
	</linearGradient>
	<path class="st3" d="M39.8,28.8h4.4c1.2,0,2.2,0.9,2.3,2.2c0,0,0,0,0,0l0,0v4.4c0,1.2-1,2.2-2.2,2.2c0,0,0,0,0,0h-4.5
		c-1.2,0-2.2-1-2.2-2.2c0,0,0,0,0,0l0,0V31C37.6,29.8,38.6,28.8,39.8,28.8z"/>
	<linearGradient id="SVGID_4_" gradientUnits="userSpaceOnUse" x1="10.9821" y1="46.1631" x2="20.0979" y2="51.4261">
		<stop  offset="0" style="stop-color:#009FFF"/>
		<stop  offset="0.3076" style="stop-color:#5178C1"/>
		<stop  offset="0.6445" style="stop-color:#A45182"/>
		<stop  offset="0.8835" style="stop-color:#D8395A"/>
		<stop  offset="1" style="stop-color:#EC2F4B"/>
	</linearGradient>
	<path class="st4" d="M13.3,44.4h4.4c1.2,0,2.2,0.9,2.3,2.2c0,0,0,0,0,0l0,0V51c0,1.2-1,2.2-2.2,2.2l0,0h-4.5c-1.2,0-2.2-1-2.2-2.2
		l0,0l0,0v-4.5C11.1,45.3,12.1,44.4,13.3,44.4z"/>
	<linearGradient id="SVGID_5_" gradientUnits="userSpaceOnUse" x1="24.241" y1="46.1475" x2="33.3593" y2="51.4119">
		<stop  offset="0" style="stop-color:#009FFF"/>
		<stop  offset="0.3076" style="stop-color:#5178C1"/>
		<stop  offset="0.6445" style="stop-color:#A45182"/>
		<stop  offset="0.8835" style="stop-color:#D8395A"/>
		<stop  offset="1" style="stop-color:#EC2F4B"/>
	</linearGradient>
	<path class="st5" d="M26.5,44.4H31c1.2,0,2.2,0.9,2.3,2.2c0,0,0,0,0,0l0,0V51c0,1.2-1,2.2-2.2,2.2c0,0,0,0,0,0h-4.5
		c-1.2,0-2.2-1-2.2-2.2l0,0v-4.5C24.4,45.3,25.3,44.4,26.5,44.4z"/>
	<linearGradient id="SVGID_6_" gradientUnits="userSpaceOnUse" x1="37.4821" y1="46.1631" x2="46.5979" y2="51.4261">
		<stop  offset="0" style="stop-color:#009FFF"/>
		<stop  offset="0.3076" style="stop-color:#5178C1"/>
		<stop  offset="0.6445" style="stop-color:#A45182"/>
		<stop  offset="0.8835" style="stop-color:#D8395A"/>
		<stop  offset="1" style="stop-color:#EC2F4B"/>
	</linearGradient>
	<path class="st6" d="M39.8,44.4h4.4c1.2,0,2.2,0.9,2.3,2.2c0,0,0,0,0,0l0,0V51c0,1.2-1,2.2-2.2,2.2c0,0,0,0,0,0h-4.5
		c-1.2,0-2.2-1-2.2-2.2l0,0v-4.5C37.6,45.3,38.6,44.4,39.8,44.4z"/>
	<linearGradient id="SVGID_7_" gradientUnits="userSpaceOnUse" x1="24.2411" y1="61.6875" x2="33.3591" y2="66.9518">
		<stop  offset="0" style="stop-color:#009FFF"/>
		<stop  offset="0.3076" style="stop-color:#5178C1"/>
		<stop  offset="0.6445" style="stop-color:#A45182"/>
		<stop  offset="0.8835" style="stop-color:#D8395A"/>
		<stop  offset="1" style="stop-color:#EC2F4B"/>
	</linearGradient>
	<path class="st7" d="M26.5,59.9H31c1.2,0,2.2,0.9,2.3,2.2c0,0,0,0,0,0l0,0v4.4c0,1.2-1,2.2-2.2,2.2c0,0,0,0-0.1,0h-4.5
		c-1.2,0-2.2-1-2.2-2.2l0,0l0,0v-4.4C24.4,60.9,25.3,59.9,26.5,59.9z"/>
	<linearGradient id="SVGID_8_" gradientUnits="userSpaceOnUse" x1="10.9886" y1="61.6918" x2="20.0914" y2="66.9473">
		<stop  offset="0" style="stop-color:#009FFF"/>
		<stop  offset="0.3076" style="stop-color:#5178C1"/>
		<stop  offset="0.6445" style="stop-color:#A45182"/>
		<stop  offset="0.8835" style="stop-color:#D8395A"/>
		<stop  offset="1" style="stop-color:#EC2F4B"/>
	</linearGradient>
	<path class="st8" d="M13.3,59.9h4.4c1.2,0,2.2,0.9,2.3,2.2c0,0,0,0,0,0l0,0v4.4c0,1.2-1,2.2-2.2,2.2l0,0h-4.5c-1.2,0-2.2-1-2.2-2.2
		l0,0l0,0v-4.4C11.1,60.9,12.1,59.9,13.3,59.9z"/>
</g>
</svg>
