<?xml version="1.0" encoding="utf-8"?>
<!-- Generator: Adobe Illustrator 22.0.0, SVG Export Plug-In . SVG Version: 6.00 Build 0)  -->
<svg version="1.1" id="Layer_1" xmlns="http://www.w3.org/2000/svg" xmlns:xlink="http://www.w3.org/1999/xlink" x="0px" y="0px"
	 viewBox="0 0 109 109" style="enable-background:new 0 0 109 109;" xml:space="preserve">
<style type="text/css">
	.st0{fill:#2C302E;}
	.st1{fill:url(#SVGID_1_);}
</style>
<title>startup</title>
<g id="_27-Report">
	<path class="st0" d="M102.2,9.1H68.1V2.3c0-1.3-1-2.3-2.3-2.3H43.2c-1.3,0-2.3,1-2.3,2.3c0,0,0,0,0,0l0,0v6.8H6.8
		C3,9.1,0,12.1,0,15.9l0,0V84c0,1.3,1,2.3,2.3,2.3h50v4.5H50c-1.3,0-2.3,1-2.3,2.3v13.6c0,1.3,1,2.3,2.2,2.3c0,0,0,0,0,0h9
		c1.3,0,2.3-1,2.3-2.3V93.1c0-1.3-1-2.3-2.3-2.3h-2.2v-4.5h50c1.2,0,2.2-1,2.2-2.3V15.9C109,12.1,106,9.1,102.2,9.1
		C102.2,9.1,102.2,9.1,102.2,9.1L102.2,9.1z M56.8,104.5h-4.5v-9.1h4.5V104.5z M104.5,81.8H4.5v-4.5h100V81.8z M104.5,72.7H4.5V15.9
		c0-1.3,1-2.3,2.3-2.3c0,0,0,0,0,0h50V9.1H45.4V4.5h18.2v6.8c0,1.3,1,2.3,2.3,2.3h36.3c1.3,0,2.3,1,2.3,2.3L104.5,72.7z"/>
	<linearGradient id="SVGID_1_" gradientUnits="userSpaceOnUse" x1="16.5" y1="42.805" x2="90.8301" y2="42.805">
		<stop  offset="0" style="stop-color:#009FFF"/>
		<stop  offset="1" style="stop-color:#EC2F4B"/>
	</linearGradient>
	<path class="st1" d="M88.6,22.7H74.9v4.5h8.2L69.5,40.9H36.3c-0.6,0-1.2,0.2-1.6,0.7L16.5,59.7l3.2,3.2l17.6-17.5h33.1
		c0.6,0,1.2-0.2,1.6-0.7l14.3-14.3v5.9h4.5V25C90.8,23.7,89.8,22.7,88.6,22.7C88.6,22.7,88.6,22.7,88.6,22.7L88.6,22.7z"/>
</g>
</svg>
