<?xml version="1.0" ?><svg id="Layer_1" style="enable-background:new 0 0 74 74;" version="1.1" viewBox="0 0 74 74" xml:space="preserve" xmlns="http://www.w3.org/2000/svg" xmlns:xlink="http://www.w3.org/1999/xlink"><style type="text/css">
	.st0{fill:#2B3033;}
</style><g><path class="st0" d="M56.8,35.2c0-5.6-2.4-11-6.6-14.7c-4.2-3.7-9.8-5.5-15.4-4.9c-9.1,1-16.5,8.4-17.4,17.5   c-0.6,6.1,1.5,12.1,5.9,16.4c1.6,1.6,2.8,3.4,3.5,5.4c-0.8,0.2-1.4,1-1.4,1.9c0,1.1,0.9,2,2,2v2.3c-1.1,0-2,0.9-2,2s0.9,2,2,2v0.8   c0,4.2,4,7.2,9.7,7.2c5.7,0,9.7-2.9,9.7-7.2v-0.8c1.1,0,2-0.9,2-2s-0.9-2-2-2v-2.3c1.1,0,2-0.9,2-2c0-0.9-0.6-1.7-1.4-1.9   c0.7-2,1.9-3.8,3.5-5.4C54.6,45.7,56.8,40.6,56.8,35.2z M42.7,58.7v2.3H31.3v-2.3H42.7z M37,69c-2.3,0-5.7-0.8-5.7-3.2v-0.8h11.4   v0.8C42.7,68.2,39.3,69,37,69z M43.1,54.7H30.9c-0.8-3-2.5-5.9-4.9-8.2c-3.5-3.4-5.3-8.2-4.7-13.1c0.8-7.3,6.6-13.2,13.9-14   c0.6-0.1,1.2-0.1,1.8-0.1c3.9,0,7.6,1.4,10.5,4c3.3,3,5.3,7.3,5.3,11.8c0,4.3-1.7,8.4-4.9,11.4C45.5,48.8,43.9,51.7,43.1,54.7z"/><path class="st0" d="M37,11c1.1,0,2-0.9,2-2V3c0-1.1-0.9-2-2-2s-2,0.9-2,2v6C35,10.1,35.9,11,37,11z"/><path class="st0" d="M17.1,18.1c0.4,0.4,0.9,0.6,1.4,0.6s1-0.2,1.4-0.6c0.8-0.8,0.8-2,0-2.8L15.7,11c-0.8-0.8-2-0.8-2.8,0   s-0.8,2,0,2.8L17.1,18.1z"/><path class="st0" d="M12.9,35.2c0-1.1-0.9-2-2-2h-6c-1.1,0-2,0.9-2,2s0.9,2,2,2h6C12,37.2,12.9,36.3,12.9,35.2z"/><path class="st0" d="M17.1,52.2l-4.3,4.3c-0.8,0.8-0.8,2,0,2.8c0.4,0.4,0.9,0.6,1.4,0.6s1-0.2,1.4-0.6l4.3-4.3c0.8-0.8,0.8-2,0-2.8   S17.9,51.5,17.1,52.2z"/><path class="st0" d="M56.9,52.2c-0.8-0.8-2-0.8-2.8,0s-0.8,2,0,2.8l4.3,4.3c0.4,0.4,0.9,0.6,1.4,0.6s1-0.2,1.4-0.6   c0.8-0.8,0.8-2,0-2.8L56.9,52.2z"/><path class="st0" d="M69.2,33.2h-6c-1.1,0-2,0.9-2,2s0.9,2,2,2h6c1.1,0,2-0.9,2-2S70.3,33.2,69.2,33.2z"/><path class="st0" d="M55.5,18.7c0.5,0,1-0.2,1.4-0.6l4.3-4.3c0.8-0.8,0.8-2,0-2.8s-2-0.8-2.8,0l-4.3,4.3c-0.8,0.8-0.8,2,0,2.8   C54.5,18.5,55,18.7,55.5,18.7z"/></g></svg>