<?xml version="1.0" encoding="UTF-8" standalone="no"?>
<svg
   xmlns:dc="http://purl.org/dc/elements/1.1/"
   xmlns:cc="http://creativecommons.org/ns#"
   xmlns:rdf="http://www.w3.org/1999/02/22-rdf-syntax-ns#"
   xmlns:svg="http://www.w3.org/2000/svg"
   xmlns="http://www.w3.org/2000/svg"
   id="svg5129"
   version="1.1"
   viewBox="0 0 114.18539 108.03513"
   height="108.03513mm"
   width="114.18539mm">
  <defs
     id="defs5123" />
  <metadata
     id="metadata5126">
    <rdf:RDF>
      <cc:Work
         rdf:about="">
        <dc:format>image/svg+xml</dc:format>
        <dc:type
           rdf:resource="http://purl.org/dc/dcmitype/StillImage" />
        <dc:title></dc:title>
      </cc:Work>
    </rdf:RDF>
  </metadata>
  <g
     transform="translate(-1.0621305,-0.6371478)"
     id="layer1">
    <g
       id="g25">
      <path
         style="opacity:1;fill:#D64933;fill-opacity:1;stroke:#a6b217;stroke-width:0.99729103;stroke-opacity:0"
         d="m 32.765564,108.04917 61.606369,-0.0418 -30.839355,-53.331668 -61.6064268,0.0415 10.2798618,17.777344 41.070955,-0.0278 10.279702,17.777255 -41.070958,0.02779 z"
         id="path4504-9" />
      <path
         style="opacity:1;fill:#0C7C59;fill-opacity:1;stroke:#a6b217;stroke-width:0.99729103;stroke-opacity:0"
         d="M 1.9261512,54.717235 63.532578,54.675732 73.78828,36.884533 53.252807,36.898278 32.717413,36.912222 42.973111,19.121032 84.044076,19.093241 94.299771,1.30205 32.693257,1.343685 Z"
         id="path4553-2" />
      <path
         style="opacity:1;fill:#4C0827;fill-opacity:1;stroke:#a6b217;stroke-width:0.66486067;stroke-opacity:0"
         d="m 22.485708,90.271824 20.5354,-0.01394 4.60022,-0.003 15.935342,-0.0108 -10.279702,-17.777255 -20.535563,0.01384 z"
         id="path4743-0" />
      <path
         id="path4743-2-2"
         d="M 53.252811,36.898238 94.323772,36.870448 84.044076,19.0932 42.973116,19.12098 Z"
         style="opacity:1;fill:#4C0827;fill-opacity:1;stroke:#a6b217;stroke-width:0.66486067;stroke-opacity:0" />
      <path
         id="path4745-3-3"
         style="opacity:1;fill:#4C0827;fill-opacity:1;stroke:#a6b217;stroke-width:0.66486073;stroke-opacity:0"
         d="M 32.717381,36.912121 53.252782,36.898177 42.973083,19.120934 Z m 20.535401,-0.01394 20.535478,-0.01374 8.1e-5,-2e-4 z M 94.371933,108.00742 104.62754,90.216398 94.347841,72.439153 73.788289,36.884553 63.532582,54.675742 Z m 20.511317,-35.582211 7e-5,-2e-4 -10.27978,-17.777085 z M 94.323772,36.870449 104.57946,19.079261 94.299771,1.30201 84.044075,19.093205 Z" />
    </g>
  </g>
</svg>
