<svg id="Layer_1" data-name="Layer 1" xmlns="http://www.w3.org/2000/svg" viewBox="0 0 100.14 78">
  <title>cloud</title>
  <path style="fill: #fefffe" d="M98.19,48.7A20.37,20.37,0,0,0,73.37,36.35a28.17,28.17,0,0,0-52.12,14.2,18.78,18.78,0,0,0,9.38,35h.14V79.33h-.15a12.52,12.52,0,0,1-2.85-24.71,21.91,21.91,0,0,1,42.61-9.79,14.08,14.08,0,0,1,22.75,9.47h.1a12.52,12.52,0,0,1,0,25H89.75v6.26h3.48a18.78,18.78,0,0,0,5-36.89Z" transform="translate(-11.86 -23)"/>
  <path style="fill: #fefffe" d="M35,68.69H85V54H35ZM72.5,56.94h9.38v5.88H72.5Zm-21.87,0h6.25v2.94H50.63Zm0,5.88h6.25v2.94H50.63Zm-9.37-5.87H47.5v2.94H41.25Zm0,5.88H47.5v2.94H41.25Z" transform="translate(-11.86 -23)"/>
  <path style="fill: #fefffe" d="M35,86.31H56.88v8.81H35V101H85V95.13H63.13V86.31H85V71.63H35ZM72.5,74.56h9.38v5.88H72.5Zm-21.87,0h6.25V77.5H50.63Zm0,5.88h6.25v2.94H50.63Zm-9.37-5.87H47.5V77.5H41.25Zm0,5.88H47.5v2.94H41.25Z" transform="translate(-11.86 -23)"/>
</svg>
