<svg id="Layer_1" data-name="Layer 1" xmlns="http://www.w3.org/2000/svg" viewBox="0 0 219 164.25">
  <title>e-commerce-light</title>
  <polygon points="54.25 109.5 27.45 45.63 148.26 45.63 153.41 27.38 0 27.38 42.11 127.75 129 127.75 129 109.5 54.25 109.5" style="fill: #fefffe"/>
  <path d="M98.56,182.88a13.69,13.69,0,1,0,13.69,13.69A13.69,13.69,0,0,0,98.56,182.88Z" transform="translate(-21 -46)" style="fill: #fefffe"/>
  <path d="M143.56,182.88a13.69,13.69,0,1,0,13.69,13.69A13.69,13.69,0,0,0,143.56,182.88Z" transform="translate(-21 -46)" style="fill: #fefffe"/>
  <polygon points="180.72 0 156.4 85.03 171.85 96.89 194.62 18.25 212.22 18.25 219 0 180.72 0" style="fill: #fefffe"/>
  <path d="M154,118l51.33,39.4L183.58,161l13.65,27.84L184.72,195,171,166.9l-17,14.7Z" transform="translate(-21 -46)" style="fill: #d54832"/>
</svg>
