<svg xmlns="http://www.w3.org/2000/svg" viewBox="0 0 192.5 239.98">
  <title>harry-vector</title>
  <g id="shirt">
    <path d="M90.5,176.5l-7,2a41.93,41.93,0,0,0-16-1l-14,3a50.38,50.38,0,0,1-13-4,20.31,20.31,0,0,0-9,0V249H222V184a30.52,30.52,0,0,1-11,0c-2.19-.15-7.58-2.57-13-5a13.92,13.92,0,0,0-8-1c-3.73,1.3-6.56,2.93-10,4a35.74,35.74,0,0,0-11.8-5.5L169,200s-1,12-8,16-35,11-53,3c0,0-10-5-17-19Z" transform="translate(-30.5 -10.02)" style="fill: #2a2461;stroke: #000;stroke-miterlimit: 10;stroke-width: 2px"/>
    <path d="M90.61,176.26,84,179s-12,19,0,37,43,22,43,22,14,4,38-7c0,0,15-10,18-29,0,0,0-17-5-21l-10-7-77.39,2.26" transform="translate(-30.5 -10.02)" style="fill: #256057;stroke: #000;stroke-miterlimit: 10;stroke-width: 2px"/>
  </g>
  <g id="face">
    <path d="M168,154c1.26,1.37,3.31,2.43,7,3a4.27,4.27,0,0,0,3-2,14.31,14.31,0,0,0,0-6c.48-2.58,1.5-5.08,3-10a87.32,87.32,0,0,0,2-19V110s-1-11-15-4S168,154,168,154Z" transform="translate(-30.5 -10.02)" style="fill: #bc8f8f;stroke: #000;stroke-miterlimit: 10;stroke-width: 2px"/>
    <path d="M88,157c-1.26,1.37-3.31,2.43-7,3a4.27,4.27,0,0,1-3-2,14.31,14.31,0,0,1,0-6c-.48-2.58-1.5-5.08-3-10a87.32,87.32,0,0,1-2-19V113s1-11,15-4S88,157,88,157Z" transform="translate(-30.5 -10.02)" style="fill: #bc8f8f;stroke: #000;stroke-miterlimit: 10;stroke-width: 2px"/>
    <path d="M168,165v30c1.35,8.87-4.21,23-17,26-.58.3-21.66,6.85-46-2a37.78,37.78,0,0,1-13-17l-2-37Z" transform="translate(-30.5 -10.02)" style="fill: #bc8f8f;stroke: #000;stroke-miterlimit: 10;stroke-width: 2px"/>
    <path d="M96,71a42.31,42.31,0,0,1-10.5,7.5c0,10.26-.5,13-.5,14.5l-4,17c-.39,8.87-.66,17.17-.5,23.5,2,14.49,3.65,23.47,5,28a120.58,120.58,0,0,0,20,32c4.76,4.35,6.82,5.67,8,6a51.11,51.11,0,0,0,30,0c1.53-.37,4.08-1.85,10-7,6.76-7.16,12.62-18.48,15.36-25.42a20.68,20.68,0,0,0,1.64-5.58,332.22,332.22,0,0,0,3-35l-3-23a58.43,58.43,0,0,1-4-12l-1-15a33.3,33.3,0,0,0-8-9l-12-9-10,3-3,1-9-4a20.44,20.44,0,0,0-9,0C106.71,62.08,100.1,66.08,96,71Z" transform="translate(-30.5 -10.02)" style="fill: #bc8a8a;stroke: #000;stroke-miterlimit: 10;stroke-width: 2px"/>
  </g>
  <g id="shadow">
    <path d="M168,184s1,24-17,36C151,220,177,215,168,184Z" transform="translate(-30.5 -10.02)"/>
    <path d="M271,225" transform="translate(-30.5 -10.02)"/>
  </g>
  <g id="hair">
    <path d="M191,71q-.67-1.33,1-4l4-4-4-3,3-4c-5.32-2.57-12.38-7.42-20-13l2-1a33.33,33.33,0,0,1-11-5c-14.5-10.08-16.34-10.22-19-11-3-1.21-9.49-.93-20,1a39.11,39.11,0,0,1,10-4c3.36-.57,7.94,0,13,1l-7-5c-4.33-1.27-9.45-1.43-15-1a42.74,42.74,0,0,1,11-5l-11-1a32.82,32.82,0,0,0-15,6c-4.85,6.84-8.69,13.53-11,20a7.57,7.57,0,0,1-2-5c.87-4.19,1.82-8.35,4-12a48.83,48.83,0,0,1,11-7H105c-3.44,1.47-7.65,4.59-12,8a88.27,88.27,0,0,0-8,15l-7-8,4,14c-2.46-.17-5.49-2.61-9-7-2.23-2-4.12-11.94-6-22-3.51,10.52-5.46,20.6-5,30,1.4,7.54,4.66,14.84,9,22-2.79.87-7.83.47-13,0l4,12c-.63,1.44-2.45,2.76-5,4l5,3-3,4,3-1-2,5h3l-1,3,3,3-2,7,3-1v5l2-3v8h2v5l2-1v6l3-3c.95.39,1.63,1.66,2,4l-2,11c.1,3.67.75,6.37,2,8,1.89,3,3.89,5,6,6,.82-.06,1.32-.3,1-1l-2-32,4-24,2-15a67.59,67.59,0,0,0,11-7l3-5,8-4,4-3a11.18,11.18,0,0,1,6-1l11,6,5-2,3.52-1.17L143,61c2.42-.55,16,21.48,18,25,.7,1.21-7.16-19.79-6.16-18.94A44.87,44.87,0,0,1,163,76a42.29,42.29,0,0,1,2,16l4,12,3,18v27c-.14.92.57,1.22,2,1a26.09,26.09,0,0,0,5-9c.27-3.14.64-6.34,0-9l-2-7a36.49,36.49,0,0,1,0-11l7,10V108l2,1,1-5h2l-1-6h3l-1-4h3l-2-6,3-1-2-3,3-1-2-4,3-4Z" transform="translate(-30.5 -10.02)" style="fill: #2c1615;stroke: #000;stroke-miterlimit: 10;stroke-width: 2px"/>
  </g>
  <g id="features">
    <circle cx="74" cy="105.48" r="3.5"/>
    <circle cx="118" cy="104.48" r="3.5"/>
    <path d="M137.56,143a5.32,5.32,0,0,0-2-1c-.82-.19-3.23-.06-3.5.5a1.34,1.34,0,0,0,.5,1.5c.29.37,2,0,2,0s1.79-1.47,3-1Z" transform="translate(-30.5 -10.02)"/>
    <path d="M118,143a5.32,5.32,0,0,1,2-1c.82-.19,3.23-.06,3.5.5a1.34,1.34,0,0,1-.5,1.5c-.29.37-2,0-2,0s-1.79-1.47-3-1Z" transform="translate(-30.5 -10.02)"/>
    <path d="M117,165c17.19.94,6.68,1.12,23-1" transform="translate(-30.5 -10.02)" style="fill: none;stroke: #000;stroke-linecap: round;stroke-miterlimit: 10;stroke-width: 2px"/>
    <path d="M111,162a16.35,16.35,0,0,0,5,0c4.15-1.36,7.76-2.33,10-2l1.15.57a1.9,1.9,0,0,0,1.7,0L130,160c1.46-.33,5.36.07,11,1a14.24,14.24,0,0,0,4,0" transform="translate(-30.5 -10.02)" style="fill: none;stroke: #000;stroke-linecap: round;stroke-miterlimit: 10;stroke-width: 2px"/>
    <circle cx="75.5" cy="104.98" r="1" style="fill: #fff"/>
    <circle cx="119.5" cy="103.98" r="1" style="fill: #fff"/>
    <path d="M136,111s1-7,16-8l-2-3s-14,1-18,13Z" transform="translate(-30.5 -10.02)" style="fill: #2c1615;stroke: #000;stroke-miterlimit: 10"/>
    <path d="M117.37,111.46s-1.6-6.89-16.63-6.59l1.73-3.16s14-.21,19.06,11.4Z" transform="translate(-30.5 -10.02)" style="fill: #2c1615;stroke: #000;stroke-miterlimit: 10"/>
  </g>
  <g id="glasses">
    <path d="M169,108s-20-8-38,4H121s-14-11-38-2l-5,1v7l4,3s3,17,15,18c0,0,19,6,25-19,0,0,5-7,9,0,0,0,5,18,19,18,0,0,15,2,19-15,0,0,2-5,3-6l6-2v-6Zm-49.72,14.75a17.78,17.78,0,0,1-22.1,14.36,20.17,20.17,0,0,1-4.64-1.93,14.18,14.18,0,0,1-6.29-7.52c-1.48-4.08-2.71-10.2.83-14.51a4.23,4.23,0,0,1,.31-.34c1.28-1.25,9.33-8.16,25.66-1.87l.36.16A10.87,10.87,0,0,1,119.28,122.75Zm46.78,3.66a13.21,13.21,0,0,1-5.33,6.68,19.85,19.85,0,0,1-5.3,2.32,17.31,17.31,0,0,1-21.51-14.13A10.6,10.6,0,0,1,139.64,110l.36-.16c15.93-6.13,23.78.61,25,1.83a4.13,4.13,0,0,1,.3.33C168.85,116.31,167.53,122.43,166.06,126.41Z" transform="translate(-30.5 -10.02)"/>
  </g>
</svg>
