<?xml version="1.0" encoding="utf-8"?>
<!-- Generator: Adobe Illustrator 18.0.0, SVG Export Plug-In . SVG Version: 6.00 Build 0)  -->
<!DOCTYPE svg PUBLIC "-//W3C//DTD SVG 1.1//EN" "http://www.w3.org/Graphics/SVG/1.1/DTD/svg11.dtd">
<svg version="1.1" id="Layer_1" xmlns="http://www.w3.org/2000/svg" xmlns:xlink="http://www.w3.org/1999/xlink" x="0px" y="0px"
	 viewBox="0 0 128 128" enable-background="new 0 0 128 128" xml:space="preserve">
<path fill="#3E3E42" d="M18,91V36.5c0-3.3,2.7-5.5,6-5.5h80c3.3,0,6,2.2,6,5.5V91"/>
<path fill="#D2D2D6" d="M12,92.5v1c0,2.2,1.8,4.5,4,4.5h96c2.2,0,4-2.3,4-4.5v-1c0-1.1-0.9-1.5-2-1.5H14C12.9,91,12,91.4,12,92.5z"
	/>
<rect x="23" y="36" fill="#57575E" width="82" height="50"/>
<path fill="#A6A6AD" d="M76,94H52c-1.1,0-2-1.4-2-2.5V91h28v0.5C78,92.6,77.1,94,76,94z"/>
</svg>
