<svg xmlns="http://www.w3.org/2000/svg" width="42.56" height="44.19" viewBox="0 0 42.56 44.19">
  <defs>
    <style>
      .cls-1 {
        fill: #fefffe;
        stroke: #fefffe;
        stroke-miterlimit: 10;
        stroke-width: 0.63px;
      }
    </style>
  </defs>
  <title>Asset 1</title>
  <g id="Layer_2" data-name="Layer 2">
    <g id="Layer_1-2" data-name="Layer 1">
      <path class="cls-1" d="M37.87,43.14,29.16,28.08l-3.46-6,3.86-6.7,12.17,21Zm-24.72.26L9.27,36.71H25.43a.24.24,0,0,0,.21-.12.24.24,0,0,0,0-.12.25.25,0,0,0,0-.12l-4.15-7.17a.25.25,0,0,0-.15-.11H4.84L1,22.36h24.3l12.17,21ZM25,36.21H9.27l3.86-6.7h8ZM13.11.81l24.3,0-3.86,6.7H17.06a.24.24,0,0,0-.15.11l-4.14,7.18a.25.25,0,0,0,0,.12.24.24,0,0,0,.24.24H29.14l-3.86,6.7H1ZM37.85,14.43,34,7.73l2.5-4.33L37.84,1l3.87,6.69Zm-8.29.25H21.41L18,8.75,17.54,8h16l3.87,6.69ZM17.12,8.23l3.73,6.45H13.4l2.44-4.23ZM42.22,36.32,30,15.16h7.87a.24.24,0,0,0,.21-.12L42.2,7.85a.24.24,0,0,0,0-.24L38,.43a.24.24,0,0,0-.21-.12L13,.33a.24.24,0,0,0-.21.12L.35,22a.24.24,0,0,0,0,.24l4.15,7.18a.24.24,0,0,0,.21.12h7.87L8.64,36.34a.24.24,0,0,0,0,.24l4.15,7.17a.24.24,0,0,0,.21.12l24.86,0a.24.24,0,0,0,.17-.07l0-.05,4.14-7.18A.24.24,0,0,0,42.22,36.32Z"/>
    </g>
  </g>
</svg>
