<svg xmlns="http://www.w3.org/2000/svg" viewBox="0 0 57.65 102">
  <title>mobile</title>
   <g id="Layer_1" data-name="Layer 1">
     <path style="fill: #fefffe" d="M83.78,114H43.87A8.87,8.87,0,0,1,35,105.13V20.87A8.87,8.87,0,0,1,43.87,12H83.78a8.87,8.87,0,0,1,8.87,8.87v84.26A8.87,8.87,0,0,1,83.78,114Zm4.43-93.13a4.44,4.44,0,0,0-4.43-4.43H43.87a4.44,4.44,0,0,0-4.43,4.43v8.87H88.22Zm0,13.3H39.43V91.83H88.22Zm0,62.09H39.43v8.87a4.44,4.44,0,0,0,4.43,4.43H83.78a4.44,4.44,0,0,0,4.43-4.43ZM63.83,107.35a4.43,4.43,0,1,1,4.43-4.43A4.44,4.44,0,0,1,63.83,107.35ZM48.3,40.83h4.43A2.22,2.22,0,0,1,55,43v4.43a2.22,2.22,0,0,1-2.22,2.22H48.3a2.22,2.22,0,0,1-2.22-2.22V43A2.22,2.22,0,0,1,48.3,40.83Zm0,15.52h4.43A2.22,2.22,0,0,1,55,58.57V63a2.22,2.22,0,0,1-2.22,2.22H48.3A2.22,2.22,0,0,1,46.09,63V58.57A2.22,2.22,0,0,1,48.3,56.35Zm0,15.52h4.43A2.22,2.22,0,0,1,55,74.09v4.43a2.22,2.22,0,0,1-2.22,2.22H48.3a2.22,2.22,0,0,1-2.22-2.22V74.09A2.22,2.22,0,0,1,48.3,71.87Zm13.3-31H66A2.22,2.22,0,0,1,68.26,43v4.43A2.22,2.22,0,0,1,66,49.7H61.61a2.22,2.22,0,0,1-2.22-2.22V43A2.22,2.22,0,0,1,61.61,40.83Zm0,15.52H66a2.22,2.22,0,0,1,2.22,2.22V63A2.22,2.22,0,0,1,66,65.22H61.61A2.22,2.22,0,0,1,59.39,63V58.57A2.22,2.22,0,0,1,61.61,56.35Zm0,15.52H66a2.22,2.22,0,0,1,2.22,2.22v4.43A2.22,2.22,0,0,1,66,80.74H61.61a2.22,2.22,0,0,1-2.22-2.22V74.09A2.22,2.22,0,0,1,61.61,71.87Zm13.3-31h4.43A2.22,2.22,0,0,1,81.57,43v4.43a2.22,2.22,0,0,1-2.22,2.22H74.91a2.22,2.22,0,0,1-2.22-2.22V43A2.22,2.22,0,0,1,74.91,40.83Zm0,15.52h4.43a2.22,2.22,0,0,1,2.22,2.22V63a2.22,2.22,0,0,1-2.22,2.22H74.91A2.22,2.22,0,0,1,72.7,63V58.57A2.22,2.22,0,0,1,74.91,56.35ZM57.17,20.87h13.3a2.22,2.22,0,0,1,0,4.43H57.17a2.22,2.22,0,0,1,0-4.43Z" transform="translate(-35 -12)"/>
    </g>
      <g id="Layer_2" data-name="Layer 2"><!--TODO extract some mobile button to orange from path-->
       <path style="fill: #d64933" d="H83.78a8.87,8.87,0,0,1,8.87,8.87v84.26A8.87,8.87,0,0,1,83.78,114Zm4.43-93.13a4.44,4.44,0,0,0-4.43-4.43H43.87a4.44,4.44,0,0,0-4.43,4.43v8.87H88.22Zm0,13.3H39.43V91.83H88.22Zm0,62.09H39.43v8.87a4.44,4.44,0,0,0,4.43,4.43H83.78a4.44,4.44,0,0,0,4.43-4.43ZM63.83,107.35a4.43,4.43,0,1,1,4.43-4.43A4.44,4.44,0,0,1,63.83,107.35ZM48.3,40.83h4.43A2.22,2.22,0,0,1,55,43v4.43a2.22,2.22,0,0,1-2.22,2.22H48.3a2.22,2.22,0,0,1-2.22-2.22V43A2.22,2.22,0,0,1,48.3,40.83Zm0,15.52h4.43A2.22,2.22,0,0,1,55,58.57V63a2.22,2.22,0,0,1-2.22,2.22H48.3A2.22,2.22,0,0,1,46.09,63V58.57A2.22,2.22,0,0,1,48.3,56.35Zm0,15.52h4.43A2.22,2.22,0,0,1,55,74.09v4.43a2.22,2.22,0,0,1-2.22,2.22H48.3a2.22,2.22,0,0,1-2.22-2.22V74.09A2.22,2.22,0,0,1,48.3,71.87Zm13.3-31H66A2.22,2.22,0,0,1,68.26,43v4.43A2.22,2.22,0,0,1,66,49.7H61.61a2.22,2.22,0,0,1-2.22-2.22V43A2.22,2.22,0,0,1,61.61,40.83Zm0,15.52H66a2.22,2.22,0,0,1,2.22,2.22V63A2.22,2.22,0,0,1,66,65.22H61.61A2.22,2.22,0,0,1,59.39,63V58.57A2.22,2.22,0,0,1,61.61,56.35Zm0,15.52H66a2.22,2.22,0,0,1,2.22,2.22v4.43A2.22,2.22,0,0,1,66,80.74H61.61a2.22,2.22,0,0,1-2.22-2.22V74.09A2.22,2.22,0,0,1,61.61,71.87Zm13.3-31h4.43A2.22,2.22,0,0,1,81.57,43v4.43a2.22,2.22,0,0,1-2.22,2.22H74.91a2.22,2.22,0,0,1-2.22-2.22V43A2.22,2.22,0,0,1,74.91,40.83Zm0,15.52h4.43a2.22,2.22,0,0,1,2.22,2.22V63a2.22,2.22,0,0,1-2.22,2.22H74.91A2.22,2.22,0,0,1,72.7,63V58.57A2.22,2.22,0,0,1,74.91,56.35ZM57.17,20.87h13.3a2.22,2.22,0,0,1,0,4.43H57.17a2.22,2.22,0,0,1,0-4.43Z" transform="translate(-35 -12)"/>
    </g>
</svg>
