<svg xmlns="http://www.w3.org/2000/svg" viewBox="0 0 193 232.92">
  <title>peter-vector</title>
  <g id="shirt">
    <polyline points="98 200.69 130 179.92 136 231.92 126 231.92 108 215.92 98 200.69" style="fill: #11151d;stroke: #000;stroke-miterlimit: 10;stroke-width: 2px"/>
    <path d="M32,206l13-9s2-10,16-15l13-25,5-4,2.48,13.26,25,31L129,217.78,140,224v4l-1,5,18,16H32Z" transform="translate(-31 -17.08)" style="fill: #e9e8ef;stroke: #000;stroke-miterlimit: 10;stroke-width: 2px"/>
    <path d="M169.41,171,190,194s28,9,33,40v15H167l-4-34-2-18V186.62L169.41,171h0" transform="translate(-31 -17.08)" style="fill: #e9e8ef;stroke: #000;stroke-miterlimit: 10;stroke-width: 2px"/>
    <path d="M130,223l-11-4c0-1.47-13.74,8.17-34,23-3.58-1.87-6.49-6.22-9-12L61,182l13-25,5-4" transform="translate(-31 -17.08)" style="fill: none;stroke: #000;stroke-linecap: round;stroke-miterlimit: 10;stroke-width: 2px"/>
    <polyline points="140 231.92 157 183.92 159 175.92" style="fill: #e9e8ef;stroke: #000;stroke-miterlimit: 10;stroke-width: 2px"/>
  </g>
  <g id="face">
    <path d="M85,101s-13-8-15-2c0,0-3,6,4,31,0,0,2,7,9,6Z" transform="translate(-31 -17.08)" style="fill: #bc8a8a;stroke: #000;stroke-miterlimit: 10;stroke-width: 2px"/>
    <path d="M126.81,164.36A24.66,24.66,0,0,0,129,167c-2,3.33-6.7,5.21-8,4a57.37,57.37,0,0,1-6-8c-.45-.91-.29-3.06.22-5.32L81.66,138.33,79,163c23.17,30.54,43.8,55.25,54,56a40.78,40.78,0,0,0,23-5c2.79-4.36,4.24-9.88,5-16l.6-13.59Z" transform="translate(-31 -17.08)" style="fill: #bc8a8a;stroke: #000;stroke-miterlimit: 10;stroke-width: 2px"/>
    <path d="M115,163a57.37,57.37,0,0,0,6,8c1.3,1.21,6-.67,8-4a24.66,24.66,0,0,1-2.19-2.64l-11.59-6.68C114.71,159.94,114.55,162.09,115,163Z" transform="translate(-31 -17.08)" style="fill: #d1a3a5;stroke: #000;stroke-miterlimit: 10;stroke-width: 2px"/>
    <path d="M183,90a4.85,4.85,0,0,0,0-3c-1-2.25-1-12.3-1-12-16.12-6.44-28.33-16-41-25-15.19-2.13-18.47-.68-21,1,0,0-7,7-10,9s-9,0-12,2-5,4-6,7,0,4,0,4-7,13-7,14-2,10.84-2,15a239.61,239.61,0,0,0-1,42c.53,3.9-.17,6,8,21,4.69,8.05,9,16,14,21s9,6.1,16,9c10.36,3.06,24,3,32,0s14.14-20.56,18-28c1.89-2.48,6.51-12.8,8.13-18.19l2-9A228.15,228.15,0,0,0,183,116C183.38,106.15,182.92,92,183,90Zm-26,74c-.45.89-4.11,7.55-5,8-1.88.94-7.75-2-9-5a16.37,16.37,0,0,0,4-6l-7-1a24.48,24.48,0,0,0-9,0l-6,1a17.57,17.57,0,0,0,4,6c-2,3.33-6.7,5.21-8,4a57.37,57.37,0,0,1-6-8c-1-2,1-10,3-12s6.86-3.1,10-4a54.56,54.56,0,0,1,19,0,20.87,20.87,0,0,1,8,4C156.95,152.36,157.5,163,157,164Z" transform="translate(-31 -17.08)" style="fill: #bc8a8a;stroke: #000;stroke-miterlimit: 10;stroke-width: 2px"/>
    <path d="M147,147a54.56,54.56,0,0,0-19,0c-3.14.9-8,2-10,4s-4,10-3,12a57.37,57.37,0,0,0,6,8c1.3,1.21,6-.67,8-4a17.57,17.57,0,0,1-4-6l6-1a24.48,24.48,0,0,1,9,0l7,1a16.37,16.37,0,0,1-4,6c1.25,3,7.12,5.94,9,5,.89-.45,4.55-7.11,5-8s-.05-11.64-2-13A20.87,20.87,0,0,0,147,147Z" transform="translate(-31 -17.08)" style="fill: #d1a3a5;stroke: #000;stroke-miterlimit: 10;stroke-width: 2px"/>
  </g>
  <g id="shadow">
    <polygon points="48.87 140.59 52.75 148.92 51.48 150.49 47.5 145.42 48.87 140.59" style="stroke: #000;stroke-miterlimit: 10"/>
  </g>
  <g id="hair">
    <path d="M108,170.92c0,.05,0,.09,0,.08C108.18,170.95,108.15,170.92,108,170.92Z" transform="translate(-31 -17.08)" style="fill: #24221d;stroke: #000;stroke-miterlimit: 10;stroke-width: 2px"/>
    <path d="M170,167l-5,6-3-6c-2.34-3.88-2-20-3-21s-5.26-.74-8-2-6-5-7-6-8-2-9-1-7,4-7,4c-2.41,1.58-11.09.83-13,2-3.79,2.32-7.36,26.41-7,27.92.2,0,.23,0,0,.08,0,0,0,0,0-.08-1.26,0-9.38.67-13-.92-5-6.31-9.63-17.64-14-32l3-37-1-2,2-12,6-10,3-7c-.34-1.94,2.41-4.49,5-7C87.78,66.93,79.52,73.25,78,85c0,0-2,12-2,14s3,4,3,5v32c.43,14.4,1.5,23.12,3,28,7.92,10.12,21.59,22.68,36,32,11.51,8.45,30.67,2.22,36-1,3.66-2.21,13.79-17.32,18-31Zm-13-3c-.45.89-4.11,7.55-5,8-1.88.94-7.75-2-9-5a16.37,16.37,0,0,0,4-6l-7-1a24.48,24.48,0,0,0-9,0l-6,1a17.57,17.57,0,0,0,4,6c-2,3.33-6.7,5.21-8,4a57.37,57.37,0,0,1-6-8c-1-2,1-10,3-12s6.86-3.1,10-4a54.56,54.56,0,0,1,19,0,20.87,20.87,0,0,1,8,4C156.95,152.36,157.5,163,157,164Z" transform="translate(-31 -17.08)" style="fill: #24221d;stroke: #000;stroke-miterlimit: 10;stroke-width: 2px"/>
    <path d="M183,120c-.5,3.5,0-19.12,0-28l-1-3c-.32-5.18-.24-9.77,1-14,0,0,1.5,1.5,3,6S183.5,116.5,183,120Z" transform="translate(-31 -17.08)" style="fill: #24221d;stroke: #000;stroke-miterlimit: 10;stroke-width: 2px"/>
    <path d="M120,52l22-1s33.29,24.92,39,23l1-1c.79-5.84,0-11.23-3-16-6.81-11.56-29-18-35-17S120,52,120,52Z" transform="translate(-31 -17.08)" style="fill: #24221d;stroke: #000;stroke-miterlimit: 10;stroke-width: 2px"/>
  </g>
  <g id="features">
    <circle cx="86" cy="84.92" r="4" style="fill: #030502"/>
    <circle cx="130" cy="87.92" r="4" style="fill: #030502"/>
    <circle cx="88" cy="83.92" r="1" style="fill: #fff"/>
    <circle cx="132" cy="86.92" r="1" style="fill: #fff"/>
    <path d="M148.5,98.5l18-2a18.74,18.74,0,0,1,12,5c.9-.17,1.1-1.5,0-5a21.36,21.36,0,0,0-9-6l-19,4C149.39,95.1,148.7,96.39,148.5,98.5Z" transform="translate(-31 -17.08)" style="fill: #24221d;stroke: #000;stroke-miterlimit: 10"/>
    <path d="M132.67,97.08l-19.83-4.81a22.61,22.61,0,0,0-14.1,3.06c-1-.31-1-1.66.7-5a24.55,24.55,0,0,1,10.89-4.52l20.67,7C132.15,93.58,132.75,95,132.67,97.08Z" transform="translate(-31 -17.08)" style="fill: #24221d;stroke: #000;stroke-miterlimit: 10"/>
    <path d="M134.85,133a4.06,4.06,0,0,0-1.89-1.86,6.5,6.5,0,0,0-1.86-.07c-.95.41-1.3,1.1-1,1.93a7.77,7.77,0,0,0,1.89.93,5.16,5.16,0,0,0,1.89,0A3.05,3.05,0,0,0,134.85,133Z" transform="translate(-31 -17.08)"/>
    <path d="M146,134a4.06,4.06,0,0,1,1.89-1.86,6.5,6.5,0,0,1,1.86-.07c.95.41,1.3,1.1,1,1.93a7.77,7.77,0,0,1-1.89.93,5.16,5.16,0,0,1-1.89,0A3.05,3.05,0,0,1,146,134Z" transform="translate(-31 -17.08)"/>
    <path d="M154,154l-2-1a60.29,60.29,0,0,0-9-1,43.31,43.31,0,0,1-5,1,43.31,43.31,0,0,1-5-1,60.37,60.37,0,0,0-11,0h-2" transform="translate(-31 -17.08)" style="fill: none;stroke: #000;stroke-linecap: round;stroke-miterlimit: 10;stroke-width: 2px"/>
    <path d="M125,155c8,2,14.67,2.33,24,1" transform="translate(-31 -17.08)" style="fill: none;stroke: #000;stroke-linecap: round;stroke-miterlimit: 10;stroke-width: 2px"/>
  </g>
  <g id="cap">
    <path d="M77,84s1-12,20-21c6.68-1.59,9.95,1.44,19-7l18-11.9s7.81-7,23.13-1.8c0,0,28.32,8.2,24.32,32.2,0,0,5.67,1.71,4.83,11.35L189,79l-.5-20.5s8-13-14-33c0,0-16-16-61-1,0,0-17,1-33,33C80.5,57.5,72.5,74.25,77,84Z" transform="translate(-31 -17.08)" style="fill: #50565e;stroke: #020202;stroke-miterlimit: 10;stroke-width: 2px"/>
    <path d="M96,60c11.81-6.88,23.75-14.29,37-27,0,0,16-11,30-7,0,0,19,1,25,28,0,0,2,14,0,18l-2.73,6.23" transform="translate(-31 -17.08)" style="fill: none;stroke: #020202;stroke-linecap: round;stroke-miterlimit: 10;stroke-width: 2px"/>
    <path d="M181,67c0-20.83-34.32-27-34.32-27-5.93,1.54-16.33,6.81-26.68,12l16-14c18-16,36-4,36-4,14,13,10,38,10,38" transform="translate(-31 -17.08)"/>
  </g>
</svg>
