<?xml version="1.0" encoding="utf-8"?>
<!-- Generator: Adobe Illustrator 18.0.0, SVG Export Plug-In . SVG Version: 6.00 Build 0)  -->
<!DOCTYPE svg PUBLIC "-//W3C//DTD SVG 1.1//EN" "http://www.w3.org/Graphics/SVG/1.1/DTD/svg11.dtd">
<svg version="1.1" id="Layer_1" xmlns="http://www.w3.org/2000/svg" xmlns:xlink="http://www.w3.org/1999/xlink" x="0px" y="0px"
	 viewBox="0 0 128 128" enable-background="new 0 0 128 128" xml:space="preserve">
<path fill="#3E3E42" d="M86,110H42c-3.3,0-6-2.7-6-6V24c0-3.3,2.7-6,6-6h44c3.3,0,6,2.7,6,6v80C92,107.3,89.3,110,86,110z"/>
<rect x="40" y="32" fill="#57575E" width="48" height="64"/>
<circle fill="#323235" cx="64" cy="103" r="4"/>
<circle opacity="0.1" cx="64" cy="103" r="3.5"/>
<path fill="#323235" d="M71,26H55c-0.6,0-1-0.4-1-1s0.4-1,1-1h16c0.6,0,1,0.4,1,1S71.6,26,71,26z"/>
</svg>
