<svg id="Layer_1" data-name="Layer 1" xmlns="http://www.w3.org/2000/svg" viewBox="0 0 104 110">
  <title>social</title>
  <circle cx="77" cy="35" r="24.5" style="fill: none;stroke: #2c302e;stroke-miterlimit: 10;stroke-width: 5px"/>
  <circle cx="58.5" cy="89.5" r="18" style="fill: none;stroke: #2c302e;stroke-miterlimit: 10;stroke-width: 5px"/>
  <circle cx="20.5" cy="46.5" r="18" style="fill: none;stroke: #2c302e;stroke-miterlimit: 10;stroke-width: 5px"/>
  <line x1="53.5" y1="41.5" x2="38.5" y2="44.5" style="fill: none;stroke: #2c302e;stroke-miterlimit: 10;stroke-width: 5px"/>
  <line x1="67.5" y1="57.5" x2="62.5" y2="71.5" style="fill: none;stroke: #2c302e;stroke-miterlimit: 10;stroke-width: 5px"/>
  <line x1="48.5" y1="74.5" x2="33.5" y2="58.5" style="fill: none;stroke: #2c302e;stroke-miterlimit: 10;stroke-width: 5px"/>
  <path style="fill: #2c302e" d="M40.21,46.71A6.71,6.71,0,1,1,33.5,40,6.71,6.71,0,0,1,40.21,46.71Zm-1.53,6.88a8.56,8.56,0,0,1-10.36,0C24.42,55.31,22,60.66,22,63H45C45,60.68,42.51,55.33,38.68,53.59Z" transform="translate(-13 -7)"/>
  <path style="fill: #2c302e" d="M99.33,33.33A9.33,9.33,0,1,1,90,24,9.33,9.33,0,0,1,99.33,33.33ZM97.2,42.91a11.91,11.91,0,0,1-14.41,0C77.36,45.3,74,52.74,74,56h32C106,52.77,102.53,45.33,97.2,42.91Z" transform="translate(-13 -7)"/>
  <path style="fill: #2c302e" d="M78.21,89.71A6.71,6.71,0,1,1,71.5,83,6.71,6.71,0,0,1,78.21,89.71Zm-1.53,6.88a8.56,8.56,0,0,1-10.36,0C62.42,98.31,60,103.66,60,106H83C83,103.68,80.51,98.33,76.68,96.59Z" transform="translate(-13 -7)"/>
  <line x1="57.5" y1="20.5" x2="43.5" y2="10.5" style="fill: none;stroke: #2c302e;stroke-miterlimit: 10;stroke-width: 5px"/>
  <circle style="fill: #2c302e" cx="40" cy="8" r="8"/>
  <line x1="16.98" y1="64.18" x2="12.66" y2="80.83" style="fill: none;stroke: #2c302e;stroke-miterlimit: 10;stroke-width: 5px"/>
  <circle style="fill: #2c302e" cx="24.58" cy="92" r="8" transform="translate(-44.32 7.9) rotate(-20.98)"/>
</svg>
