<svg id="Layer_1" data-name="Layer 1" xmlns="http://www.w3.org/2000/svg" viewBox="0 0 109 109">
  <title>startup</title>
  <g id="_27-Report" data-name=" 27-Report" style="fill: #2c302e">
    <path d="M111.69,18.58H77.63V11.77A2.27,2.27,0,0,0,75.36,9.5H52.65a2.27,2.27,0,0,0-2.27,2.27h0v6.81H16.31A6.81,6.81,0,0,0,9.5,25.39h0V93.5a2.27,2.27,0,0,0,2.27,2.27h50v4.54H59.5a2.27,2.27,0,0,0-2.27,2.27v13.63a2.27,2.27,0,0,0,2.25,2.29h9a2.27,2.27,0,0,0,2.27-2.27V102.6a2.27,2.27,0,0,0-2.27-2.27H66.27V95.79h50a2.27,2.27,0,0,0,2.23-2.29V25.4a6.81,6.81,0,0,0-6.8-6.82ZM66.27,114H61.73v-9.08h4.54ZM114,91.25H14V86.71H114Zm0-9.08H14V25.4a2.27,2.27,0,0,1,2.27-2.27h50V18.58H54.92V14H73.08v6.81a2.27,2.27,0,0,0,2.27,2.27h36.33a2.27,2.27,0,0,1,2.27,2.27Z" transform="translate(-9.5 -9.5)"/>
    <path d="M98.06,32.21H84.44v4.54h8.15L79,50.38H45.83a2.27,2.27,0,0,0-1.61.66L26,69.2l3.2,3.2L46.76,54.92H79.9a2.27,2.27,0,0,0,1.6-.66L95.79,40v5.88h4.54V34.5a2.27,2.27,0,0,0-2.25-2.29Z" transform="translate(-9.5 -9.5)"/>
  </g>
</svg>
