<?xml version="1.0" encoding="utf-8"?>
<!-- Generator: Adobe Illustrator 18.0.0, SVG Export Plug-In . SVG Version: 6.00 Build 0)  -->
<!DOCTYPE svg PUBLIC "-//W3C//DTD SVG 1.1//EN" "http://www.w3.org/Graphics/SVG/1.1/DTD/svg11.dtd">
<svg version="1.1" id="Layer_1" xmlns="http://www.w3.org/2000/svg" xmlns:xlink="http://www.w3.org/1999/xlink" x="0px" y="0px"
	 viewBox="0 0 128 128" enable-background="new 0 0 128 128" xml:space="preserve">
<path fill="#3E3E42" d="M95,115H33c-3.3,0-6-2.7-6-6V19c0-3.3,2.7-6,6-6h62c3.3,0,6,2.7,6,6v90C101,112.3,98.3,115,95,115z"/>
<rect x="32" y="27" fill="#57575E" width="64" height="74"/>
<circle fill="#323235" cx="64" cy="108" r="4"/>
<circle opacity="0.1" cx="64" cy="108" r="3.5"/>
<path fill="#323235" d="M73,21H55c-0.6,0-1-0.4-1-1s0.4-1,1-1h18c0.6,0,1,0.4,1,1S73.6,21,73,21z"/>
</svg>
